<svg width="1024" height="1024" viewBox="0 0 1024 1024" fill="none" xmlns="http://www.w3.org/2000/svg">
<path fill-rule="evenodd" clip-rule="evenodd" d="M714.265 684.266C714.559 684.068 714.852 683.869 715.146 683.669C713.374 687.678 711.487 691.623 709.489 695.503C711.179 691.621 712.773 687.871 714.265 684.266ZM309.54 684.134C310.743 687.067 312.013 690.095 313.348 693.211C311.777 690.072 310.279 686.891 308.854 683.669C309.083 683.825 309.311 683.979 309.54 684.134Z" fill="#22C55E"/>
<path d="M512 372C561.84 372 607.844 388.424 644.895 416.155C698.99 456.642 734 521.233 734 594C734 625.91 727.268 656.247 715.146 683.669C714.852 683.869 714.559 684.068 714.265 684.266C712.773 687.871 711.179 691.621 709.489 695.503C691.201 737.517 661.766 794.923 630.937 849.766C581.384 937.917 528.23 1019.45 511.982 1019.79C495.483 1019.45 442.123 937.791 392.534 849.519C361.227 793.788 331.422 735.419 313.348 693.211C312.013 690.095 310.743 687.067 309.54 684.134C309.311 683.979 309.083 683.825 308.854 683.669C296.732 656.247 290 625.91 290 594C290 521.233 325.01 456.642 379.105 416.155C416.156 388.424 462.16 372 512 372Z" fill="#181818"/>
<path fill-rule="evenodd" clip-rule="evenodd" d="M150 384C150 184.073 312.073 22 512 22C711.927 22 874 184.073 874 384C874 466.896 846.137 543.284 799.265 604.309C797.486 606.625 793.796 605.222 793.88 602.303C793.96 599.545 794 596.777 794 594C794 488.875 736.478 397.186 651.191 348.689C650.407 348.243 649.86 347.466 649.698 346.579C637.741 281.396 580.639 232 512 232C443.361 232 386.259 281.396 374.302 346.579C374.14 347.466 373.593 348.243 372.809 348.689C287.522 397.186 230 488.875 230 594C230 596.777 230.04 599.545 230.12 602.303C230.204 605.222 226.514 606.625 224.735 604.309C177.863 543.284 150 466.896 150 384Z" fill="#22C55E"/>
<path d="M714.265 684.266C714.559 684.068 714.852 683.869 715.146 683.669M511.982 1019.79C528.23 1019.45 581.384 937.917 630.937 849.766C661.766 794.923 691.201 737.517 709.489 695.503C711.179 691.621 712.773 687.871 714.265 684.266M714.265 684.266C721.608 666.52 726.458 652.302 727.898 643.3M715.146 683.669C713.374 687.678 711.487 691.623 709.489 695.503M313.348 693.211C311.777 690.072 310.279 686.891 308.854 683.669C296.732 656.247 290 625.91 290 594C290 521.233 325.01 456.642 379.105 416.155C416.156 388.424 462.16 372 512 372C561.84 372 607.844 388.424 644.895 416.155C698.99 456.642 734 521.233 734 594C734 625.91 727.268 656.247 715.146 683.669M296.086 643C297.45 652.059 302.241 666.334 309.54 684.134C310.743 687.067 312.013 690.095 313.348 693.211C331.422 735.419 361.227 793.788 392.534 849.519C442.123 937.791 495.483 1019.45 511.982 1019.79M309.54 684.134C309.311 683.979 309.083 683.825 308.854 683.669M511.982 1019.79C511.948 1019.79 511.915 1019.79 511.881 1019.79M511.982 1019.79C512.017 1019.79 512.051 1019.79 512.085 1019.79M150 384C150 184.073 312.073 22 512 22C711.927 22 874 184.073 874 384C874 466.896 846.137 543.284 799.265 604.309C797.486 606.625 793.796 605.222 793.88 602.303C793.96 599.545 794 596.777 794 594C794 488.875 736.478 397.186 651.191 348.689C650.407 348.243 649.86 347.466 649.698 346.579C637.741 281.396 580.639 232 512 232C443.361 232 386.259 281.396 374.302 346.579C374.14 347.466 373.593 348.243 372.809 348.689C287.522 397.186 230 488.875 230 594C230 596.777 230.04 599.545 230.12 602.303C230.204 605.222 226.514 606.625 224.735 604.309C177.863 543.284 150 466.896 150 384Z" stroke="#AEAEAE" stroke-width="5"/>
</svg>
